# xmcd
#
# Track frame offsets:
#	150
#	21723
#	45594
#	84943
#	105057
#	132386
#	146793
#	166620
#	201169
#	222432
#	244746
#	262502
#	291289
#	309418
#	331683
#
# Disc length: 4792 seconds
#
# Revision: 0
# Processed by: cddbd v1.5.2PL0 Copyright (c) Steve Scherf et al.
# Submitted via: EasyCDDAExtractor 8.2.3.1
#
DISCID=ca12b60f
DTITLE=Various Artist - On the Road Again 3-th Mile
DYEAR=2003
DGENRE=Blues
TTITLE0=SNOWY WHITE - The Time Has Come
TTITLE1=NEAL BLACK - Bridge in Tennessee
TTITLE2=JAMES COTTON - Black Night
TTITLE3=LIVIN' BLUES - Blue Side of Life
TTITLE4=TERRY Mc MILLAN - Cold Day in Hell
TTITLE5=DUKE ROBILLARD - She Made My Mind
TTITLE6=BLACK CAT BONE - Voodoo
TTITLE7=EDDIE CLEARWATER - Running Along
TTITLE8=HOOSIER BLUES - Doggin' Me
TTITLE9=TONY JOE WHITE - I Want to Be with You
TTITLE10=MICK ABRAHAMS - Leaving Home Blues
TTITLE11=WALTER TROUT - The Reason I'm Gone
TTITLE12=TOMMY CASTRO - Nasty Habits
TTITLE13=DAVE THOMPSON - I'm Having It So Hard
TTITLE14=CHRIS COBB  - Hurting Again
EXTD=
EXTT0=
EXTT1=
EXTT2=
EXTT3=
EXTT4=
EXTT5=
EXTT6=
EXTT7=
EXTT8=
EXTT9=
EXTT10=
EXTT11=
EXTT12=
EXTT13=
EXTT14=
PLAYORDER=
